<?xml version="1.0" encoding="UTF-8" standalone="no"?>
<!-- Created with Inkscape (http://www.inkscape.org/) -->

<svg
   width="841.33496"
   height="841.33508"
   viewBox="0 0 222.60321 222.60325"
   version="1.1"
   id="svg5"
   xml:space="preserve"
   inkscape:version="1.2.2 (732a01da63, 2022-12-09)"
   sodipodi:docname="icon.svg"
   xmlns:inkscape="http://www.inkscape.org/namespaces/inkscape"
   xmlns:sodipodi="http://sodipodi.sourceforge.net/DTD/sodipodi-0.dtd"
   xmlns="http://www.w3.org/2000/svg"
   xmlns:svg="http://www.w3.org/2000/svg"><sodipodi:namedview
     id="namedview7"
     pagecolor="#ffffff"
     bordercolor="#000000"
     borderopacity="0.25"
     inkscape:showpageshadow="2"
     inkscape:pageopacity="0"
     inkscape:pagecheckerboard="false"
     inkscape:deskcolor="#d1d1d1"
     inkscape:document-units="px"
     showgrid="false"
     inkscape:zoom="0.460571"
     inkscape:cx="111.81772"
     inkscape:cy="521.0923"
     inkscape:window-width="1366"
     inkscape:window-height="697"
     inkscape:window-x="-8"
     inkscape:window-y="-8"
     inkscape:window-maximized="1"
     inkscape:current-layer="g14540"
     showguides="true"
     showborder="true" /><defs
     id="defs2" /><g
     inkscape:label="Layer 1"
     inkscape:groupmode="layer"
     id="layer1"
     transform="translate(-73.540071,-96.939917)"><g
       id="g917"><g
         id="g1607"
         transform="matrix(0,-0.35159541,0.35159541,0,5.7911303,103.47772)"><g
           id="g7397"
           transform="matrix(18.026434,0,0,18.344922,-1378.8485,-2179.9178)"
           inkscape:export-filename="javabattery.sketch.backup.svg"
           inkscape:export-xdpi="12"
           inkscape:export-ydpi="12"><ellipse
             style="fill:#191910;fill-opacity:1;stroke-width:0.0776612"
             id="path10239"
             cx="146.58931"
             cy="-59.960918"
             transform="rotate(90)"
             rx="17.256088"
             ry="17.560968" /><g
             style="fill:#ffffff;fill-opacity:1"
             id="g10393"
             transform="matrix(0,1.6863322,-1.7161262,0,73.914251,133.70936)"><g
               id="g14540"
               transform="translate(0.09730166,0.29190498)"><path
                 d="M 3.5704286,4.6811112 A 1.4784442,1.4784442 0 0 0 2.091985,6.1595554 V 9.1164438 A 1.4784442,1.4784442 0 0 0 3.5704286,10.59489 H 10.962653 A 1.4784442,1.4784442 0 0 0 12.441102,9.1164438 V 6.1595554 A 1.4784442,1.4784442 0 0 0 10.962653,4.6811112 Z m 7.3922244,0.7392221 a 0.73922208,0.73922208 0 0 1 0.739225,0.7392221 V 9.1164438 A 0.73922208,0.73922208 0 0 1 10.962653,9.8556656 H 3.5704286 A 0.73922208,0.73922208 0 0 1 2.8312067,9.1164438 V 6.1595554 A 0.73922208,0.73922208 0 0 1 3.5704286,5.4203333 Z m 2.956893,2.2176662 A 1.1088331,1.1088331 0 0 1 12.810713,8.7468326 V 6.5291664 a 1.1088331,1.1088331 0 0 1 1.108833,1.1088331 z"
                 id="path10383"
                 style="fill:#ffffff;fill-opacity:1;stroke-width:0.739222" /></g></g></g></g></g></g></svg>
